# xmcd CD database file
# Generated: mer jan 7 23:29:03 2004 by KSCD
# 
# Track frame offsets:
#       150
#       12990
#       27365
#       37242
#       49217
#       53385
#       63607
#       72680
#       84027
#       97280
#       102795
#       106577
#       114000
#       130310
#       137970
#       148797
#       159297
#       167477
#       175455
#       187410
#       190167
#       213305
#
# Disc length: 2848 seconds
#
# Revision: 1
# Processed by: cddbd v1.4PL0 Copyright (c) Steve Scherf et al.
# Submitted via: Kscd 1.3.3
#
DISCID=3d0b1e16
DTITLE=The Nitty Gritty Dirt Band - Uncle Charlie and His Dog Teddy
DYEAR=1900
DGENRE=
TTITLE0=Some of Shelly's Blues
TTITLE1=Prodigal Son's Return
TTITLE2=The Cure
TTITLE3=Travelin' Mood
TTITLE4=Chicken Road
TTITLE5=Yukon Railroad
TTITLE6=Livin' Without You
TTITLE7=Clinch Mountain Backstep
TTITLE8=Rave On
TTITLE9=Billy In The Low Ground
TTITLE10=Jesse Jame
TTITLE11=Uncle Charlie Interview
TTITLE12=Mr. Bojangles
TTITLE13=Opus 36
TTITLE14=Santa Rosa
TTITLE15=Propinquity
TTITLE16=Uncle Charlie
TTITLE17=Randy Lynn Rag
TTITLE18=House At Pooh Corner
TTITLE19=Swannee River
TTITLE20=Uncle Charlie Interview #2/Spanish Fandango
TTITLE21=data
EXTD=
EXTT0=
EXTT1=
EXTT2=
EXTT3=
EXTT4=
EXTT5=
EXTT6=
EXTT7=
EXTT8=
EXTT9=
EXTT10=
EXTT11=
EXTT12=
EXTT13=
EXTT14=
EXTT15=
EXTT16=
EXTT17=
EXTT18=
EXTT19=
EXTT20=
EXTT21=
PLAYORDER=
